<svg xmlns="http://www.w3.org/2000/svg" viewBox="0 0 360 360" fill="none" shape-rendering="auto" width="512" height="512"><desc>"Avatar Illustration System" by "Micah Lanier", licensed under "CC BY 4.0". / Remix of the original. - Created with dicebear.com</desc><metadata xmlns:dc="http://purl.org/dc/elements/1.1/" xmlns:cc="http://creativecommons.org/ns#" xmlns:rdf="http://www.w3.org/1999/02/22-rdf-syntax-ns#"><rdf:RDF><cc:Work><dc:title>Avatar Illustration System</dc:title><dc:creator><cc:Agent rdf:about="https://dribbble.com/micahlanier"><dc:title>Micah Lanier</dc:title></cc:Agent></dc:creator><dc:source>https://www.figma.com/community/file/829741575478342595</dc:source><cc:license rdf:resource="https://creativecommons.org/licenses/by/4.0/" /></cc:Work></rdf:RDF></metadata><mask id="viewboxMask"><rect width="360" height="360" rx="0" ry="0" x="0" y="0" fill="#fff" /></mask><g mask="url(#viewboxMask)"><g transform="translate(80 23)"><path d="M154 319.5c-14.4-20-25.67-58.67-27-78L58.5 212 30 319.5h124Z" fill="#ac6651" stroke="#000" stroke-width="4"/><path d="M130.37 263.69c-2.1.2-4.22.31-6.37.31-30.78 0-56.05-21.57-58.76-49.1L127 241.5c.38 5.48 1.55 13.32 3.37 22.19Z" fill="#000" style="mix-blend-mode:multiply"/><path d="M181.94 151.37v.01l.1.4.14.65A75.72 75.72 0 0 1 34.93 187.7l-.2-.74L18 117.13l-.06-.29A75.72 75.72 0 0 1 165.2 81.55l.05.21.02.08.05.2.05.2v.01l16.4 68.44.08.34.08.34Z" fill="#ac6651" stroke="#000" stroke-width="4"/><g transform="translate(34 102.3)"></g></g><g transform="translate(170 183)"><path d="M64.73 25.7a36 36 0 0 0 1.18-12.54 4.98 4.98 0 0 0-6.8-4.2c-4.26 1.67-18.03 6.88-27.62 8.2-10.52 1.44-26.66-.32-31.44-.91a4.98 4.98 0 0 0-5.53 5.74 36 36 0 0 0 70.21 3.7Z" fill="#000000"/><path d="M51.83 39.55a32 32 0 0 1-37.2 4.62 21.5 21.5 0 0 1 37.2-4.62Z" fill="#FC909F"/></g><g transform="translate(110 102)"><path d="M27 26.5c6.17 2.5 21.1 3 31.5-15M94 4c5.17 5.33 18.1 12.8 28.5 0" stroke="#000000" stroke-width="4" stroke-linecap="round"/></g><g transform="translate(49 11)"><path d="m-13.4 312.86-.62-1.64c-.56-1.55-1.35-3.84-2.23-6.74a163.21 163.21 0 0 1-5.28-23.98c-2.81-19.77-2.8-45.8 8.4-71.12 1.8-4.09 4.07-8.3 6.52-12.85 9.47-17.6 21.77-40.46 21.77-82.45 0-30.59 14.84-56.35 36.7-74.51 21.88-18.18 50.7-28.66 78.38-28.66 15.13 0 27.3 1.73 37.07 7.64 9.72 5.87 17.37 16.05 23.05 33.58a3.47 3.47 0 0 0 4.36 2.27c11.31-3.67 28.47.04 42.95 9.5 14.42 9.4 25.62 24.15 25.62 41.91 0 15.43-2.64 25.85-5.22 36-3.12 12.3-6.13 24.16-4 43.5.7 6.45 2.15 11.03 4.16 14.82 1.98 3.73 4.48 6.62 7.12 9.66l.05.07c6.28 7.25 9.13 13.22 10.06 18.47.92 5.23-.05 9.98-1.84 14.9-.9 2.48-2 4.97-3.15 7.59l-.1.22c-1.12 2.53-2.3 5.19-3.35 7.98-2.18 5.77-3.89 12.2-3.72 19.83.15 6.48 1.3 10.91 3.01 14.27 1.7 3.32 3.89 5.44 5.8 7.3l.05.05c1.74 1.68 3.2 3.1 4.27 5.1.96 1.78 1.67 4.13 1.79 7.66a172.14 172.14 0 0 1-87.4 23.9 110.86 110.86 0 0 1-7.28-.28c-6.15-9.4-11.75-24.88-16.1-40.8-4.21-15.46-7.18-31.08-8.3-41.4 37.08-10.72 60.32-48.98 54.73-88.46l-.01-.12a5.97 5.97 0 0 0-.08-.47 76.68 76.68 0 0 0-.43-2.25 486.97 486.97 0 0 0-6.53-28.2 276.64 276.64 0 0 0-7.45-24.2c-2.76-7.5-5.83-14.15-9.1-18.24l-.3-.37-.44-.2c-1.93-.83-3.94-1.77-6.03-2.74-9.93-4.62-21.84-10.17-37.26-10.78-18.78-.74-42.56 5.78-74.7 29.09l-2.02 1.46 1.95 1.57c15.92 12.83 19.37 29.86 18.63 44.3a89.2 89.2 0 0 1-5.24 25.1c-1.16-1.69-1.9-3.82-2.45-6.33a85.19 85.19 0 0 1-.96-5.45l-.05-.3c-.3-2-.63-4.08-1.1-6.09-.96-4.01-2.57-8.02-6.14-10.86-3.58-2.84-8.8-4.25-16.4-3.83l-2.22.13.46 2.18 11.36 53.31.02.08.03.09a79.8 79.8 0 0 0 19.91 32.81 65.49 65.49 0 0 1 1.54 2.68c1.01 1.82 2.37 4.38 3.76 7.33 2.82 5.94 5.66 13.24 6.2 19.2.57 6.05-.96 13.86-2.7 20.31a129.63 129.63 0 0 1-2.84 9.14c-5.03-2.4-9.53-2.23-13.38.01-4.16 2.43-7.21 7.06-9.48 12.22-4.15 9.42-6.14 21.64-7.06 29.22A601.65 601.65 0 0 1 6.2 320.1 353.85 353.85 0 0 1-9 314.64a190.8 190.8 0 0 1-4.4-1.77Z" fill="#ffffff" stroke="#000" stroke-width="3.82"/></g><g transform="translate(142 119)"><circle cx="15.24" cy="20.24" r="12" transform="rotate(-6.28 15.24 20.24)" fill="#ffedef"/><ellipse cx="16.53" cy="29.4" rx="9" ry="13.5" transform="rotate(-6.78 16.53 29.4)" fill="#000000"/><circle cx="79.02" cy="11.61" r="12" transform="rotate(-6.28 79.02 11.61)" fill="#ffedef"/><ellipse cx="80.53" cy="19.4" rx="9" ry="13.5" transform="rotate(-6.28 80.53 19.4)" fill="#000000"/><g transform="translate(-40 -8)"><g stroke="#f9c9b6" stroke-width="4"><circle cx="122.5" cy="28" r="26"/><circle cx="55.5" cy="37" r="26"/><path d="M97.5 35a8 8 0 0 0-16 0M30 39 0 44.5"/></g></g></g><g transform="rotate(-8 1149.44 -1186.92)"><path d="M12.3 12.34c5.45-1.24 14.38.62 12.42 10.54-1.74 8.82-11.1 9.3-13.72 6.82" stroke="#000" stroke-width="4"/></g><g transform="translate(84 154)"><path d="M30.5 6.18A23.78 23.78 0 0 0 23.08 5c-10.5 0-19 6.5-18 18.5 1.04 12.5 8.5 17 19 17A19.6 19.6 0 0 0 31 39.23" stroke="#000" stroke-width="8"/><path d="M31.5 39.04a19.38 19.38 0 0 1-7.42 1.46c-10.5 0-17.96-4.5-19-17-1-12 7.5-18.5 18-18.5 3.14 0 6.19.6 8.92 1.73l-.5 32.3Z" fill="#ac6651"/><path d="M27.5 13.5c-4-1.83-12.8-2.8-16 8" stroke="#000" stroke-width="4"/><path d="M17 14c2.17 1.83 6.3 7.5 5.5 15.5" stroke="#000" stroke-width="4"/><g transform="translate(3 35)"></g></g><g transform="translate(53 272)"><path d="M260.37 90.86H-12.54l.1-.2C-7.89 81.38.5 64.31 11.4 49.03c6.2-8.67 13.13-16.65 20.54-22.27 7.41-5.61 15.12-8.73 22.95-8.04 15.06 1.31 28.46 9.56 41.93 17.83l3.83 2.35c14.48 8.82 29.35 17.02 45.72 13.43 5.53-1.2 9.26-3.8 11.6-7.16 2.32-3.3 3.15-7.15 3.3-10.66.14-3.52-.4-6.85-.96-9.26a39.89 39.89 0 0 0-.75-2.78c3.63-3.64 7.47-5.77 11.43-6.73 4.3-1.03 8.89-.73 13.72.7 9.73 2.87 20.14 10.25 30.3 19.73 18.61 17.37 35.69 41.14 45.36 54.68Z" fill="#f4d150" stroke="#000" stroke-width="4.27"/></g></g></svg>